<?xml version="1.0" encoding="utf-8"?>
<!-- Generator: Adobe Illustrator 23.1.0, SVG Export Plug-In . SVG Version: 6.00 Build 0)  -->
<svg version="1.1" xmlns="http://www.w3.org/2000/svg" xmlns:xlink="http://www.w3.org/1999/xlink" x="0px" y="0px"
	 viewBox="0 0 841.89 841.89" style="enable-background:new 0 0 841.89 841.89;" xml:space="preserve">
<style type="text/css">
	.st0{display:none;}
	.st1{display:inline;fill:#D89500;stroke:#332109;stroke-width:2;stroke-miterlimit:10;}
	.st2{display:inline;fill:#FFECB3;stroke:#332109;stroke-width:2;stroke-miterlimit:10;}
	.st3{display:inline;}
	.st4{fill:#DDF2FC;stroke:#332109;stroke-width:2;stroke-miterlimit:10;}
	.st5{display:inline;fill:#A56508;stroke:#332109;stroke-width:2;stroke-miterlimit:10;}
	.st6{display:inline;fill:#B3E5FC;stroke:#332109;stroke-width:2;stroke-miterlimit:10;}
	.st7{display:inline;fill:#A07235;stroke:#332109;stroke-width:2;stroke-miterlimit:10;}
	.st8{display:inline;fill:#FFDF5A;stroke:#332109;stroke-width:2;stroke-miterlimit:10;}
	.st9{fill:#FFA733;}
	.st10{fill:#332109;}
	.st11{fill:#FFF6E9;}
	.st12{fill:#DDF2FC;}
	.st13{fill:#7F7569;}
	.st14{fill:#FFDF5A;}
</style>
<g id="Слой_1" class="st0">
	<path class="st1" d="M512.06,169.96H329.83c-6.63,0-12-5.37-12-12V110c0-6.63,5.37-12,12-12h182.22c6.63,0,12,5.37,12,12v47.96
		C524.06,164.59,518.68,169.96,512.06,169.96z"/>
	<path class="st2" d="M257.69,702.3h326.5c12.01,0,21.75-9.74,21.75-21.75V191.94c0-12.01-9.74-21.75-21.75-21.75h-326.5
		c-12.01,0-21.75,9.74-21.75,21.75v488.61C235.94,692.56,245.68,702.3,257.69,702.3z"/>
	<path class="st1" d="M604.95,180.82H236.94c-7.04,0-12.74-5.7-12.74-12.74v-4.15c0-7.04,5.7-12.74,12.74-12.74h368.02
		c7.04,0,12.74,5.7,12.74,12.74v4.15C617.69,175.11,611.99,180.82,604.95,180.82z"/>
	<g class="st3">
		<path class="st4" d="M305.36,279.63h-36c-8.56,0-15.5-6.94-15.5-15.5v-61c0-8.56,6.94-15.5,15.5-15.5h36
			c8.56,0,15.5,6.94,15.5,15.5v61C320.86,272.69,313.92,279.63,305.36,279.63z"/>
		<path class="st4" d="M536.53,279.63h36c8.56,0,15.5-6.94,15.5-15.5v-61c0-8.56-6.94-15.5-15.5-15.5h-36
			c-8.56,0-15.5,6.94-15.5,15.5v61C521.03,272.69,527.97,279.63,536.53,279.63z"/>
		<path class="st4" d="M358.42,279.63h36c8.56,0,15.5-6.94,15.5-15.5v-61c0-8.56-6.94-15.5-15.5-15.5h-36
			c-8.56,0-15.5,6.94-15.5,15.5v61C342.92,272.69,349.86,279.63,358.42,279.63z"/>
		<path class="st4" d="M447.47,279.63h36c8.56,0,15.5-6.94,15.5-15.5v-61c0-8.56-6.94-15.5-15.5-15.5h-36
			c-8.56,0-15.5,6.94-15.5,15.5v61C431.97,272.69,438.91,279.63,447.47,279.63z"/>
	</g>
	<g class="st3">
		<path class="st4" d="M305.36,401.74h-36c-8.56,0-15.5-6.94-15.5-15.5v-61c0-8.56,6.94-15.5,15.5-15.5h36
			c8.56,0,15.5,6.94,15.5,15.5v61C320.86,394.8,313.92,401.74,305.36,401.74z"/>
		<path class="st4" d="M536.53,401.74h36c8.56,0,15.5-6.94,15.5-15.5v-61c0-8.56-6.94-15.5-15.5-15.5h-36
			c-8.56,0-15.5,6.94-15.5,15.5v61C521.03,394.8,527.97,401.74,536.53,401.74z"/>
		<path class="st4" d="M358.42,401.74h36c8.56,0,15.5-6.94,15.5-15.5v-61c0-8.56-6.94-15.5-15.5-15.5h-36
			c-8.56,0-15.5,6.94-15.5,15.5v61C342.92,394.8,349.86,401.74,358.42,401.74z"/>
		<path class="st4" d="M447.47,401.74h36c8.56,0,15.5-6.94,15.5-15.5v-61c0-8.56-6.94-15.5-15.5-15.5h-36
			c-8.56,0-15.5,6.94-15.5,15.5v61C431.97,394.8,438.91,401.74,447.47,401.74z"/>
	</g>
	<g class="st3">
		<path class="st4" d="M305.36,523.85h-36c-8.56,0-15.5-6.94-15.5-15.5v-61c0-8.56,6.94-15.5,15.5-15.5h36
			c8.56,0,15.5,6.94,15.5,15.5v61C320.86,516.91,313.92,523.85,305.36,523.85z"/>
		<path class="st4" d="M536.53,523.85h36c8.56,0,15.5-6.94,15.5-15.5v-61c0-8.56-6.94-15.5-15.5-15.5h-36
			c-8.56,0-15.5,6.94-15.5,15.5v61C521.03,516.91,527.97,523.85,536.53,523.85z"/>
		<path class="st4" d="M358.42,523.85h36c8.56,0,15.5-6.94,15.5-15.5v-61c0-8.56-6.94-15.5-15.5-15.5h-36
			c-8.56,0-15.5,6.94-15.5,15.5v61C342.92,516.91,349.86,523.85,358.42,523.85z"/>
		<path class="st4" d="M447.47,523.85h36c8.56,0,15.5-6.94,15.5-15.5v-61c0-8.56-6.94-15.5-15.5-15.5h-36
			c-8.56,0-15.5,6.94-15.5,15.5v61C431.97,516.91,438.91,523.85,447.47,523.85z"/>
	</g>
	<rect x="235.94" y="535.78" class="st5" width="370" height="42.07"/>
	<path class="st1" d="M535,572.63H306.89c-5.78,0-10.47-4.69-10.47-10.47v-10.17c0-5.78,4.69-10.47,10.47-10.47H535
		c5.78,0,10.47,4.69,10.47,10.47v10.17C545.47,567.94,540.78,572.63,535,572.63z"/>
	<path class="st6" d="M471.75,590.3h-49.62v98.81h-2.49V590.3h-49.5c-9.79,0-17.72,7.93-17.72,17.72v94.28h137.06v-94.28
		C489.47,598.23,481.54,590.3,471.75,590.3z"/>
	<path class="st7" d="M647.75,721.41H194.14c-8.39,0-15.19-6.8-15.19-15.19v-7.83c0-8.39,6.8-15.19,15.19-15.19h453.61
		c8.39,0,15.19,6.8,15.19,15.19v7.83C662.94,714.6,656.14,721.41,647.75,721.41z"/>
	<path class="st8" d="M344.58,110.44l4.07,8.24c0.08,0.17,0.25,0.29,0.44,0.32l9.09,1.32c0.48,0.07,0.67,0.66,0.32,0.99l-6.58,6.41
		c-0.14,0.13-0.2,0.33-0.17,0.52l1.55,9.06c0.08,0.48-0.42,0.84-0.84,0.61l-8.13-4.28c-0.17-0.09-0.37-0.09-0.54,0l-8.13,4.28
		c-0.43,0.22-0.93-0.14-0.84-0.61l1.55-9.06c0.03-0.19-0.03-0.38-0.17-0.52l-6.58-6.41c-0.35-0.34-0.15-0.92,0.32-0.99l9.09-1.32
		c0.19-0.03,0.35-0.15,0.44-0.32l4.07-8.24C343.74,110.01,344.36,110.01,344.58,110.44z"/>
	<path class="st8" d="M383.02,110.44l4.07,8.24c0.08,0.17,0.25,0.29,0.44,0.32l9.09,1.32c0.48,0.07,0.67,0.66,0.32,0.99l-6.58,6.41
		c-0.14,0.13-0.2,0.33-0.17,0.52l1.55,9.06c0.08,0.48-0.42,0.84-0.85,0.61l-8.13-4.28c-0.17-0.09-0.37-0.09-0.54,0l-8.13,4.28
		c-0.43,0.22-0.93-0.14-0.84-0.61l1.55-9.06c0.03-0.19-0.03-0.38-0.17-0.52l-6.58-6.41c-0.35-0.34-0.15-0.92,0.32-0.99l9.09-1.32
		c0.19-0.03,0.35-0.15,0.44-0.32l4.07-8.24C382.19,110.01,382.81,110.01,383.02,110.44z"/>
	<path class="st8" d="M421.47,110.44l4.07,8.24c0.08,0.17,0.25,0.29,0.44,0.32l9.09,1.32c0.48,0.07,0.67,0.66,0.32,0.99l-6.58,6.41
		c-0.14,0.13-0.2,0.33-0.17,0.52l1.55,9.06c0.08,0.48-0.42,0.84-0.84,0.61l-8.13-4.28c-0.17-0.09-0.37-0.09-0.54,0l-8.13,4.28
		c-0.43,0.22-0.93-0.14-0.85-0.61l1.55-9.06c0.03-0.19-0.03-0.38-0.17-0.52l-6.58-6.41c-0.35-0.34-0.15-0.92,0.32-0.99l9.09-1.32
		c0.19-0.03,0.35-0.15,0.44-0.32l4.07-8.24C420.64,110.01,421.25,110.01,421.47,110.44z"/>
	<path class="st8" d="M459.91,110.44l4.07,8.24c0.08,0.17,0.25,0.29,0.44,0.32l9.09,1.32c0.48,0.07,0.67,0.66,0.32,0.99l-6.58,6.41
		c-0.14,0.13-0.2,0.33-0.17,0.52l1.55,9.06c0.08,0.48-0.42,0.84-0.84,0.61l-8.13-4.28c-0.17-0.09-0.37-0.09-0.54,0l-8.13,4.28
		c-0.43,0.22-0.93-0.14-0.84-0.61l1.55-9.06c0.03-0.19-0.03-0.38-0.17-0.52l-6.58-6.41c-0.35-0.34-0.15-0.92,0.32-0.99l9.09-1.32
		c0.19-0.03,0.35-0.15,0.44-0.32l4.07-8.24C459.08,110.01,459.7,110.01,459.91,110.44z"/>
	<path class="st8" d="M498.36,110.44l4.07,8.24c0.08,0.17,0.25,0.29,0.44,0.32l9.09,1.32c0.48,0.07,0.67,0.66,0.32,0.99l-6.58,6.41
		c-0.14,0.13-0.2,0.33-0.17,0.52l1.55,9.06c0.08,0.48-0.42,0.84-0.84,0.61l-8.13-4.28c-0.17-0.09-0.37-0.09-0.54,0l-8.13,4.28
		c-0.43,0.22-0.93-0.14-0.84-0.61l1.55-9.06c0.03-0.19-0.03-0.38-0.17-0.52l-6.58-6.41c-0.35-0.34-0.15-0.92,0.32-0.99l9.09-1.32
		c0.19-0.03,0.35-0.15,0.44-0.32l4.07-8.24C497.53,110.01,498.15,110.01,498.36,110.44z"/>
</g>
<g id="Слой_2">
	<g>
		<path class="st9" d="M511.33,169.96H329.11c-6.63,0-12-5.37-12-12V110c0-6.63,5.37-12,12-12h182.22c6.63,0,12,5.37,12,12v47.96
			C523.33,164.59,517.96,169.96,511.33,169.96z"/>
		<path class="st10" d="M511.33,170.96H329.11c-7.17,0-13-5.83-13-13V110c0-7.17,5.83-13,13-13h182.22c7.17,0,13,5.83,13,13v47.96
			C524.33,165.13,518.5,170.96,511.33,170.96z M329.11,99c-6.07,0-11,4.93-11,11v47.96c0,6.07,4.93,11,11,11h182.22
			c6.07,0,11-4.93,11-11V110c0-6.07-4.93-11-11-11H329.11z"/>
	</g>
	<g>
		<path class="st9" d="M244.74,702.3H595.7c5.26,0,9.52-4.26,9.52-9.52V179.7c0-5.26-4.26-9.52-9.52-9.52H244.74
			c-5.26,0-9.52,4.26-9.52,9.52v513.07C235.22,698.04,239.48,702.3,244.74,702.3z"/>
		<path class="st10" d="M595.7,703.3H244.74c-5.8,0-10.52-4.72-10.52-10.52V179.7c0-5.8,4.72-10.52,10.52-10.52H595.7
			c5.8,0,10.52,4.72,10.52,10.52v513.07C606.22,698.58,601.5,703.3,595.7,703.3z M244.74,171.19c-4.7,0-8.52,3.82-8.52,8.52v513.07
			c0,4.7,3.82,8.52,8.52,8.52H595.7c4.7,0,8.52-3.82,8.52-8.52V179.7c0-4.7-3.82-8.52-8.52-8.52H244.74z"/>
	</g>
	<g>
		<path class="st11" d="M424,716.67h-7.56c-18.66,0-33.78-15.12-33.78-33.78v-59.33c0-18.66,15.12-33.78,33.78-33.78H424
			c18.66,0,33.78,15.12,33.78,33.78v59.33C457.78,701.54,442.66,716.67,424,716.67z"/>
		<path class="st10" d="M424,717.67h-7.56c-19.18,0-34.78-15.6-34.78-34.78v-59.33c0-19.18,15.6-34.78,34.78-34.78H424
			c19.18,0,34.78,15.6,34.78,34.78v59.33C458.78,702.06,443.18,717.67,424,717.67z M416.44,590.78c-18.08,0-32.78,14.71-32.78,32.78
			v59.33c0,18.08,14.71,32.78,32.78,32.78H424c18.08,0,32.78-14.71,32.78-32.78v-59.33c0-18.08-14.71-32.78-32.78-32.78H416.44z"/>
	</g>
	<g>
		<path class="st12" d="M422.31,713.85h-4.18c-17.19,0-31.12-13.93-31.12-31.12v-57.62c0-17.19,13.93-31.12,31.12-31.12h4.18
			c17.19,0,31.12,13.93,31.12,31.12v57.62C453.43,699.92,439.5,713.85,422.31,713.85z"/>
		<path class="st10" d="M422.31,714.85h-4.18c-17.71,0-32.12-14.41-32.12-32.12v-57.62c0-17.71,14.41-32.12,32.12-32.12h4.18
			c17.71,0,32.12,14.41,32.12,32.12v57.62C454.43,700.44,440.02,714.85,422.31,714.85z M418.13,595
			c-16.61,0-30.12,13.51-30.12,30.12v57.62c0,16.61,13.51,30.12,30.12,30.12h4.18c16.61,0,30.12-13.51,30.12-30.12v-57.62
			c0-16.61-13.51-30.12-30.12-30.12H418.13z"/>
	</g>
	<g>
		<path class="st11" d="M604.23,180.82H236.21c-7.04,0-12.74-5.7-12.74-12.74v-4.15c0-7.04,5.7-12.74,12.74-12.74h368.02
			c7.04,0,12.74,5.7,12.74,12.74v4.15C616.97,175.11,611.27,180.82,604.23,180.82z"/>
		<path class="st10" d="M604.23,181.81H236.21c-7.58,0-13.74-6.16-13.74-13.74v-4.15c0-7.58,6.16-13.74,13.74-13.74h368.02
			c7.58,0,13.74,6.16,13.74,13.74v4.15C617.97,175.65,611.81,181.81,604.23,181.81z M236.21,152.19c-6.47,0-11.74,5.27-11.74,11.74
			v4.15c0,6.47,5.27,11.74,11.74,11.74h368.02c6.47,0,11.74-5.27,11.74-11.74v-4.15c0-6.47-5.27-11.74-11.74-11.74H236.21z"/>
	</g>
	<g>
		<rect x="235.94" y="538.05" class="st11" width="370" height="13.48"/>
		<path class="st10" d="M606.95,552.54h-372v-15.48h372V552.54z M236.94,550.54h368v-11.48h-368V550.54z"/>
	</g>
	<g>
		<path class="st13" d="M647.03,721.41H193.42c-8.39,0-15.19-6.8-15.19-15.19v-7.83c0-8.39,6.8-15.19,15.19-15.19h453.61
			c8.39,0,15.19,6.8,15.19,15.19v7.83C662.22,714.6,655.42,721.41,647.03,721.41z"/>
		<path class="st10" d="M647.03,722.41H193.42c-8.93,0-16.19-7.26-16.19-16.19v-7.83c0-8.93,7.26-16.19,16.19-16.19h453.61
			c8.93,0,16.19,7.26,16.19,16.19v7.83C663.22,715.14,655.96,722.41,647.03,722.41z M193.42,684.19c-7.83,0-14.19,6.37-14.19,14.19
			v7.83c0,7.83,6.37,14.19,14.19,14.19h453.61c7.83,0,14.19-6.37,14.19-14.19v-7.83c0-7.83-6.37-14.19-14.19-14.19H193.42z"/>
	</g>
	<g>
		<path class="st14" d="M343.85,110.44l4.07,8.24c0.08,0.17,0.25,0.29,0.44,0.32l9.09,1.32c0.48,0.07,0.67,0.66,0.32,0.99
			l-6.58,6.41c-0.14,0.13-0.2,0.33-0.17,0.52l1.55,9.06c0.08,0.48-0.42,0.84-0.84,0.61l-8.13-4.28c-0.17-0.09-0.37-0.09-0.54,0
			l-8.13,4.28c-0.43,0.22-0.93-0.14-0.84-0.61l1.55-9.06c0.03-0.19-0.03-0.38-0.17-0.52l-6.58-6.41c-0.35-0.34-0.15-0.92,0.32-0.99
			l9.09-1.32c0.19-0.03,0.35-0.15,0.44-0.32l4.07-8.24C343.02,110.01,343.64,110.01,343.85,110.44z"/>
		<path class="st10" d="M334.65,138.98c-0.33,0-0.65-0.1-0.93-0.3c-0.49-0.36-0.73-0.95-0.63-1.55l1.52-8.84l-6.42-6.26
			c-0.43-0.42-0.59-1.04-0.4-1.62c0.19-0.58,0.68-0.99,1.28-1.08l8.87-1.29l3.97-8.04c0.27-0.54,0.81-0.88,1.42-0.88
			s1.15,0.34,1.42,0.88h0l3.97,8.04l8.88,1.29c0.6,0.09,1.09,0.5,1.28,1.08c0.19,0.58,0.03,1.2-0.4,1.62l-6.42,6.26l1.52,8.84
			c0.1,0.6-0.14,1.19-0.63,1.55c-0.49,0.36-1.13,0.4-1.67,0.12l-7.94-4.17l-7.94,4.17C335.16,138.92,334.91,138.98,334.65,138.98z
			 M330.19,121.19l5.97,5.82c0.37,0.36,0.54,0.89,0.45,1.4l-1.41,8.22l7.38-3.88c0.46-0.24,1.01-0.24,1.47,0l7.38,3.88l-1.41-8.22
			c-0.09-0.51,0.08-1.04,0.46-1.4l5.97-5.82l-8.25-1.2c-0.52-0.08-0.96-0.4-1.19-0.87l-3.69-7.48l-3.69,7.48
			c-0.23,0.47-0.68,0.79-1.19,0.87L330.19,121.19z"/>
	</g>
	<g>
		<path class="st14" d="M382.3,110.44l4.07,8.24c0.08,0.17,0.25,0.29,0.44,0.32l9.09,1.32c0.48,0.07,0.67,0.66,0.32,0.99l-6.58,6.41
			c-0.14,0.13-0.2,0.33-0.17,0.52l1.55,9.06c0.08,0.48-0.42,0.84-0.85,0.61l-8.13-4.28c-0.17-0.09-0.37-0.09-0.54,0l-8.13,4.28
			c-0.43,0.22-0.93-0.14-0.84-0.61l1.55-9.06c0.03-0.19-0.03-0.38-0.17-0.52l-6.58-6.41c-0.35-0.34-0.15-0.92,0.32-0.99l9.09-1.32
			c0.19-0.03,0.35-0.15,0.44-0.32l4.07-8.24C381.47,110.01,382.08,110.01,382.3,110.44z"/>
		<path class="st10" d="M390.45,138.98c-0.25,0-0.5-0.06-0.74-0.18l-7.94-4.17l-7.94,4.17c-0.54,0.28-1.17,0.24-1.67-0.12
			c-0.49-0.36-0.73-0.95-0.63-1.55l1.52-8.84l-6.42-6.26c-0.43-0.42-0.59-1.04-0.4-1.62s0.68-0.99,1.28-1.08l8.87-1.29l3.97-8.04
			c0.27-0.54,0.81-0.88,1.42-0.88h0c0.61,0,1.15,0.34,1.42,0.88l3.97,8.04l8.88,1.29c0.6,0.09,1.09,0.5,1.28,1.08s0.03,1.2-0.4,1.62
			l-6.42,6.26l1.52,8.84c0.1,0.6-0.14,1.19-0.63,1.55C391.1,138.88,390.78,138.98,390.45,138.98z M381.78,132.57
			c0.25,0,0.51,0.06,0.74,0.18l7.38,3.88l-1.41-8.22c-0.09-0.51,0.08-1.04,0.46-1.4l5.97-5.82l-8.26-1.2
			c-0.52-0.08-0.96-0.4-1.19-0.87l-3.69-7.48l-3.69,7.48c-0.23,0.47-0.67,0.79-1.19,0.87l-8.26,1.2l5.97,5.82
			c0.37,0.36,0.54,0.89,0.46,1.4l-1.41,8.22l7.38-3.88C381.27,132.63,381.52,132.57,381.78,132.57z"/>
	</g>
	<g>
		<path class="st14" d="M420.74,110.44l4.07,8.24c0.08,0.17,0.25,0.29,0.44,0.32l9.09,1.32c0.48,0.07,0.67,0.66,0.32,0.99
			l-6.58,6.41c-0.14,0.13-0.2,0.33-0.17,0.52l1.55,9.06c0.08,0.48-0.42,0.84-0.84,0.61l-8.13-4.28c-0.17-0.09-0.37-0.09-0.54,0
			l-8.13,4.28c-0.43,0.22-0.93-0.14-0.85-0.61l1.55-9.06c0.03-0.19-0.03-0.38-0.17-0.52l-6.58-6.41c-0.35-0.34-0.15-0.92,0.32-0.99
			l9.09-1.32c0.19-0.03,0.35-0.15,0.44-0.32l4.07-8.24C419.91,110.01,420.53,110.01,420.74,110.44z"/>
		<path class="st10" d="M428.9,138.98c-0.25,0-0.5-0.06-0.74-0.18l-7.94-4.17l-7.94,4.17c-0.54,0.28-1.18,0.24-1.67-0.12
			c-0.49-0.36-0.73-0.95-0.63-1.55l1.52-8.84l-6.42-6.26c-0.43-0.42-0.59-1.04-0.4-1.62s0.68-0.99,1.28-1.08l8.88-1.29l3.97-8.04
			c0.27-0.54,0.81-0.88,1.42-0.88h0c0.61,0,1.15,0.34,1.42,0.88l3.97,8.04l8.88,1.29c0.6,0.09,1.09,0.5,1.28,1.08s0.04,1.2-0.4,1.62
			l-6.42,6.26l1.52,8.84c0.1,0.6-0.14,1.19-0.63,1.55C429.55,138.88,429.23,138.98,428.9,138.98z M420.22,132.57
			c0.25,0,0.51,0.06,0.74,0.18l7.38,3.88l-1.41-8.22c-0.09-0.51,0.08-1.03,0.45-1.4l5.97-5.82l-8.25-1.2
			c-0.52-0.08-0.96-0.4-1.19-0.87l-3.69-7.48l-3.69,7.48c-0.23,0.47-0.68,0.79-1.19,0.87l-8.26,1.2l5.97,5.82
			c0.37,0.36,0.54,0.89,0.46,1.4l-1.41,8.22l7.38-3.88C419.72,132.63,419.97,132.57,420.22,132.57z M428.9,128.07L428.9,128.07
			C428.9,128.07,428.9,128.07,428.9,128.07z M419.85,110.89C419.85,110.89,419.85,110.89,419.85,110.89L419.85,110.89z"/>
	</g>
	<g>
		<path class="st14" d="M459.19,110.44l4.07,8.24c0.08,0.17,0.25,0.29,0.44,0.32l9.09,1.32c0.48,0.07,0.67,0.66,0.32,0.99
			l-6.58,6.41c-0.14,0.13-0.2,0.33-0.17,0.52l1.55,9.06c0.08,0.48-0.42,0.84-0.84,0.61l-8.13-4.28c-0.17-0.09-0.37-0.09-0.54,0
			l-8.13,4.28c-0.43,0.22-0.93-0.14-0.84-0.61l1.55-9.06c0.03-0.19-0.03-0.38-0.17-0.52l-6.58-6.41c-0.35-0.34-0.15-0.92,0.32-0.99
			l9.09-1.32c0.19-0.03,0.35-0.15,0.44-0.32l4.07-8.24C458.36,110.01,458.98,110.01,459.19,110.44z"/>
		<path class="st10" d="M467.34,138.98c-0.25,0-0.5-0.06-0.74-0.18l-7.94-4.17l-7.94,4.17c-0.54,0.28-1.18,0.23-1.67-0.12
			c-0.49-0.36-0.73-0.95-0.63-1.55l1.52-8.84l-6.42-6.26c-0.43-0.42-0.59-1.04-0.4-1.62s0.68-0.99,1.28-1.08l8.88-1.29l3.97-8.04
			c0.27-0.54,0.81-0.88,1.42-0.88s1.15,0.34,1.42,0.88v0l3.97,8.04l8.88,1.29c0.6,0.09,1.09,0.5,1.28,1.08
			c0.19,0.58,0.03,1.2-0.4,1.62l-6.42,6.26l1.52,8.84c0.1,0.6-0.14,1.19-0.63,1.55C468,138.88,467.67,138.98,467.34,138.98z
			 M445.53,121.19l5.97,5.82c0.37,0.36,0.54,0.89,0.45,1.4l-1.41,8.22l7.38-3.88c0.46-0.24,1.01-0.24,1.47,0l7.38,3.88l-1.41-8.22
			c-0.09-0.51,0.08-1.04,0.46-1.4l5.97-5.82l-8.25-1.2c-0.52-0.08-0.96-0.4-1.19-0.87l-3.69-7.48l-3.69,7.48
			c-0.23,0.47-0.67,0.79-1.19,0.87L445.53,121.19z M458.87,134.52L458.87,134.52C458.86,134.52,458.86,134.52,458.87,134.52z
			 M458.29,110.89L458.29,110.89L458.29,110.89z"/>
	</g>
	<g>
		<path class="st14" d="M497.64,110.44l4.07,8.24c0.08,0.17,0.25,0.29,0.44,0.32l9.09,1.32c0.48,0.07,0.67,0.66,0.32,0.99
			l-6.58,6.41c-0.14,0.13-0.2,0.33-0.17,0.52l1.55,9.06c0.08,0.48-0.42,0.84-0.85,0.61l-8.13-4.28c-0.17-0.09-0.37-0.09-0.54,0
			l-8.13,4.28c-0.43,0.22-0.93-0.14-0.84-0.61l1.55-9.06c0.03-0.19-0.03-0.38-0.17-0.52l-6.58-6.41c-0.35-0.34-0.15-0.92,0.32-0.99
			l9.09-1.32c0.19-0.03,0.35-0.15,0.44-0.32l4.07-8.24C496.81,110.01,497.42,110.01,497.64,110.44z"/>
		<path class="st10" d="M505.79,138.98c-0.25,0-0.5-0.06-0.74-0.18l-7.94-4.17l-7.94,4.17c-0.54,0.28-1.18,0.23-1.67-0.12
			c-0.49-0.36-0.73-0.95-0.63-1.55l1.52-8.84l-6.42-6.26c-0.43-0.42-0.59-1.04-0.4-1.62c0.19-0.58,0.68-0.99,1.28-1.08l8.88-1.29
			l3.97-8.04c0.27-0.54,0.81-0.88,1.42-0.88s1.15,0.34,1.42,0.88v0l3.97,8.04l8.87,1.29c0.6,0.09,1.09,0.5,1.28,1.08
			s0.03,1.2-0.4,1.62l-6.42,6.26l1.52,8.84c0.1,0.6-0.14,1.19-0.63,1.55C506.44,138.88,506.12,138.98,505.79,138.98z M483.98,121.19
			l5.97,5.82c0.37,0.36,0.54,0.89,0.46,1.4l-1.41,8.22l7.38-3.88c0.46-0.24,1.01-0.24,1.48,0l7.38,3.88l-1.41-8.22
			c-0.09-0.51,0.08-1.04,0.45-1.4l5.97-5.82l-8.25-1.2c-0.52-0.08-0.96-0.4-1.19-0.87l-3.69-7.48l-3.69,7.48
			c-0.23,0.47-0.67,0.79-1.19,0.87L483.98,121.19z M496.92,134.52C496.92,134.52,496.92,134.52,496.92,134.52L496.92,134.52z
			 M502.6,118.24L502.6,118.24C502.6,118.24,502.6,118.24,502.6,118.24z M496.74,110.89L496.74,110.89L496.74,110.89z"/>
	</g>
	<g>
		<g>
			<g>
				<path class="st11" d="M311.35,279.13h-49.42c-4.86,0-8.79-3.94-8.79-8.79v-59.37c0-13.17,10.67-23.84,23.84-23.84h19.32
					c13.17,0,23.84,10.67,23.84,23.84v59.37C320.14,275.2,316.2,279.13,311.35,279.13z"/>
				<path class="st10" d="M311.35,280.13h-49.42c-5.4,0-9.79-4.39-9.79-9.79v-59.37c0-13.7,11.14-24.84,24.84-24.84h19.32
					c13.7,0,24.84,11.14,24.84,24.84v59.37C321.14,275.74,316.75,280.13,311.35,280.13z M276.98,188.13
					c-12.59,0-22.84,10.25-22.84,22.84v59.37c0,4.3,3.5,7.79,7.79,7.79h49.42c4.3,0,7.79-3.5,7.79-7.79v-59.37
					c0-12.59-10.25-22.84-22.84-22.84H276.98z"/>
			</g>
			<g>
				<path class="st12" d="M309.37,270.27h-45.45c-3.41,0-6.17-2.76-6.17-6.17v-51.97c0-11.72,9.5-21.22,21.22-21.22h15.36
					c11.72,0,21.22,9.5,21.22,21.22v51.97C315.54,267.51,312.77,270.27,309.37,270.27z"/>
				<path class="st10" d="M309.37,271.27h-45.45c-3.95,0-7.17-3.22-7.17-7.17v-51.97c0-12.25,9.97-22.22,22.22-22.22h15.36
					c12.25,0,22.22,9.97,22.22,22.22v51.97C316.54,268.06,313.32,271.27,309.37,271.27z M278.96,191.91
					c-11.15,0-20.22,9.07-20.22,20.22v51.97c0,2.85,2.32,5.17,5.17,5.17h45.45c2.85,0,5.17-2.32,5.17-5.17v-51.97
					c0-11.15-9.07-20.22-20.22-20.22H278.96z"/>
			</g>
			<g>
				<path class="st11" d="M321.35,282.84h-67.97c-2.67,0-4.83-2.16-4.83-4.83v-6.93c0-2.67,2.16-4.83,4.83-4.83h67.97
					c2.67,0,4.83,2.16,4.83,4.83v6.93C326.18,280.68,324.01,282.84,321.35,282.84z"/>
				<path class="st10" d="M321.35,283.84h-67.97c-3.21,0-5.83-2.61-5.83-5.83v-6.94c0-3.21,2.61-5.83,5.83-5.83h67.97
					c3.21,0,5.83,2.61,5.83,5.83v6.94C327.18,281.22,324.56,283.84,321.35,283.84z M253.38,267.24c-2.11,0-3.83,1.72-3.83,3.83v6.94
					c0,2.11,1.72,3.83,3.83,3.83h67.97c2.11,0,3.83-1.72,3.83-3.83v-6.94c0-2.11-1.72-3.83-3.83-3.83H253.38z"/>
			</g>
			<g>
				<rect x="257.74" y="228.52" class="st11" width="57.8" height="4.15"/>
				<path class="st10" d="M316.54,233.67h-59.8v-6.15h59.8V233.67z M258.74,231.67h55.8v-2.15h-55.8V231.67z"/>
			</g>
		</g>
		<g>
			<g>
				<path class="st11" d="M400.4,279.13h-49.42c-4.86,0-8.79-3.94-8.79-8.79v-59.37c0-13.17,10.67-23.84,23.84-23.84h19.32
					c13.17,0,23.84,10.67,23.84,23.84v59.37C409.19,275.2,405.26,279.13,400.4,279.13z"/>
				<path class="st10" d="M400.4,280.13h-49.42c-5.4,0-9.79-4.39-9.79-9.79v-59.37c0-13.7,11.14-24.84,24.84-24.84h19.32
					c13.7,0,24.84,11.14,24.84,24.84v59.37C410.19,275.74,405.8,280.13,400.4,280.13z M366.03,188.13
					c-12.59,0-22.84,10.25-22.84,22.84v59.37c0,4.3,3.5,7.79,7.79,7.79h49.42c4.3,0,7.79-3.5,7.79-7.79v-59.37
					c0-12.59-10.25-22.84-22.84-22.84H366.03z"/>
			</g>
			<g>
				<path class="st12" d="M398.42,270.27h-45.45c-3.41,0-6.17-2.76-6.17-6.17v-51.97c0-11.72,9.5-21.22,21.22-21.22h15.36
					c11.72,0,21.22,9.5,21.22,21.22v51.97C404.59,267.51,401.83,270.27,398.42,270.27z"/>
				<path class="st10" d="M398.42,271.27h-45.45c-3.95,0-7.17-3.22-7.17-7.17v-51.97c0-12.25,9.97-22.22,22.22-22.22h15.36
					c12.25,0,22.22,9.97,22.22,22.22v51.97C405.59,268.06,402.38,271.27,398.42,271.27z M368.01,191.91
					c-11.15,0-20.22,9.07-20.22,20.22v51.97c0,2.85,2.32,5.17,5.17,5.17h45.45c2.85,0,5.17-2.32,5.17-5.17v-51.97
					c0-11.15-9.07-20.22-20.22-20.22H368.01z"/>
			</g>
			<g>
				<path class="st11" d="M410.4,282.84h-67.97c-2.67,0-4.83-2.16-4.83-4.83v-6.93c0-2.67,2.16-4.83,4.83-4.83h67.97
					c2.67,0,4.83,2.16,4.83,4.83v6.93C415.23,280.68,413.07,282.84,410.4,282.84z"/>
				<path class="st10" d="M410.4,283.84h-67.97c-3.21,0-5.83-2.61-5.83-5.83v-6.94c0-3.21,2.61-5.83,5.83-5.83h67.97
					c3.21,0,5.83,2.61,5.83,5.83v6.94C416.23,281.22,413.62,283.84,410.4,283.84z M342.43,267.24c-2.11,0-3.83,1.72-3.83,3.83v6.94
					c0,2.11,1.72,3.83,3.83,3.83h67.97c2.11,0,3.83-1.72,3.83-3.83v-6.94c0-2.11-1.72-3.83-3.83-3.83H342.43z"/>
			</g>
			<g>
				<rect x="346.8" y="228.52" class="st11" width="57.8" height="4.15"/>
				<path class="st10" d="M405.59,233.67h-59.8v-6.15h59.8V233.67z M347.8,231.67h55.8v-2.15h-55.8V231.67z"/>
			</g>
		</g>
		<g>
			<g>
				<path class="st11" d="M489.46,279.13h-49.42c-4.86,0-8.79-3.94-8.79-8.79v-59.37c0-13.17,10.67-23.84,23.84-23.84h19.32
					c13.17,0,23.84,10.67,23.84,23.84v59.37C498.25,275.2,494.31,279.13,489.46,279.13z"/>
				<path class="st10" d="M489.46,280.13h-49.42c-5.4,0-9.79-4.39-9.79-9.79v-59.37c0-13.7,11.14-24.84,24.84-24.84h19.32
					c13.7,0,24.84,11.14,24.84,24.84v59.37C499.25,275.74,494.86,280.13,489.46,280.13z M455.09,188.13
					c-12.59,0-22.84,10.25-22.84,22.84v59.37c0,4.3,3.5,7.79,7.79,7.79h49.42c4.3,0,7.79-3.5,7.79-7.79v-59.37
					c0-12.59-10.25-22.84-22.84-22.84H455.09z"/>
			</g>
			<g>
				<path class="st12" d="M487.48,270.27h-45.45c-3.41,0-6.17-2.76-6.17-6.17v-51.97c0-11.72,9.5-21.22,21.22-21.22h15.36
					c11.72,0,21.22,9.5,21.22,21.22v51.97C493.65,267.51,490.89,270.27,487.48,270.27z"/>
				<path class="st10" d="M487.48,271.27h-45.46c-3.95,0-7.17-3.22-7.17-7.17v-51.97c0-12.25,9.97-22.22,22.22-22.22h15.36
					c12.25,0,22.22,9.97,22.22,22.22v51.97C494.65,268.06,491.43,271.27,487.48,271.27z M457.07,191.91
					c-11.15,0-20.22,9.07-20.22,20.22v51.97c0,2.85,2.32,5.17,5.17,5.17h45.46c2.85,0,5.17-2.32,5.17-5.17v-51.97
					c0-11.15-9.07-20.22-20.22-20.22H457.07z"/>
			</g>
			<g>
				<path class="st11" d="M499.46,282.84h-67.97c-2.67,0-4.83-2.16-4.83-4.83v-6.93c0-2.67,2.16-4.83,4.83-4.83h67.97
					c2.67,0,4.83,2.16,4.83,4.83v6.93C504.29,280.68,502.13,282.84,499.46,282.84z"/>
				<path class="st10" d="M499.46,283.84h-67.97c-3.21,0-5.83-2.61-5.83-5.83v-6.94c0-3.21,2.61-5.83,5.83-5.83h67.97
					c3.21,0,5.83,2.61,5.83,5.83v6.94C505.29,281.22,502.67,283.84,499.46,283.84z M431.49,267.24c-2.11,0-3.83,1.72-3.83,3.83v6.94
					c0,2.11,1.72,3.83,3.83,3.83h67.97c2.11,0,3.83-1.72,3.83-3.83v-6.94c0-2.11-1.72-3.83-3.83-3.83H431.49z"/>
			</g>
			<g>
				<rect x="435.85" y="228.52" class="st11" width="57.8" height="4.15"/>
				<path class="st10" d="M494.65,233.67h-59.8v-6.15h59.8V233.67z M436.85,231.67h55.8v-2.15h-55.8V231.67z"/>
			</g>
		</g>
		<g>
			<g>
				<path class="st11" d="M578.51,279.13H529.1c-4.86,0-8.79-3.94-8.79-8.79v-59.37c0-13.17,10.67-23.84,23.84-23.84h19.32
					c13.17,0,23.84,10.67,23.84,23.84v59.37C587.31,275.2,583.37,279.13,578.51,279.13z"/>
				<path class="st10" d="M578.51,280.13H529.1c-5.4,0-9.79-4.39-9.79-9.79v-59.37c0-13.7,11.14-24.84,24.84-24.84h19.32
					c13.7,0,24.84,11.14,24.84,24.84v59.37C588.31,275.74,583.91,280.13,578.51,280.13z M544.14,188.13
					c-12.59,0-22.84,10.25-22.84,22.84v59.37c0,4.3,3.5,7.79,7.79,7.79h49.42c4.3,0,7.79-3.5,7.79-7.79v-59.37
					c0-12.59-10.25-22.84-22.84-22.84H544.14z"/>
			</g>
			<g>
				<path class="st12" d="M576.53,270.27h-45.45c-3.41,0-6.17-2.76-6.17-6.17v-51.97c0-11.72,9.5-21.22,21.22-21.22h15.36
					c11.72,0,21.22,9.5,21.22,21.22v51.97C582.7,267.51,579.94,270.27,576.53,270.27z"/>
				<path class="st10" d="M576.53,271.27h-45.45c-3.95,0-7.17-3.22-7.17-7.17v-51.97c0-12.25,9.97-22.22,22.22-22.22h15.36
					c12.25,0,22.22,9.97,22.22,22.22v51.97C583.7,268.06,580.49,271.27,576.53,271.27z M546.13,191.91
					c-11.15,0-20.22,9.07-20.22,20.22v51.97c0,2.85,2.32,5.17,5.17,5.17h45.45c2.85,0,5.17-2.32,5.17-5.17v-51.97
					c0-11.15-9.07-20.22-20.22-20.22H546.13z"/>
			</g>
			<g>
				<path class="st11" d="M588.51,282.84h-67.97c-2.67,0-4.83-2.16-4.83-4.83v-6.93c0-2.67,2.16-4.83,4.83-4.83h67.97
					c2.67,0,4.83,2.16,4.83,4.83v6.93C593.34,280.68,591.18,282.84,588.51,282.84z"/>
				<path class="st10" d="M588.51,283.84h-67.97c-3.21,0-5.83-2.61-5.83-5.83v-6.94c0-3.21,2.61-5.83,5.83-5.83h67.97
					c3.21,0,5.83,2.61,5.83,5.83v6.94C594.34,281.22,591.73,283.84,588.51,283.84z M520.54,267.24c-2.11,0-3.83,1.72-3.83,3.83v6.94
					c0,2.11,1.72,3.83,3.83,3.83h67.97c2.11,0,3.83-1.72,3.83-3.83v-6.94c0-2.11-1.72-3.83-3.83-3.83H520.54z"/>
			</g>
			<g>
				<rect x="524.91" y="228.52" class="st11" width="57.8" height="4.15"/>
				<path class="st10" d="M583.7,233.67h-59.8v-6.15h59.8V233.67z M525.91,231.67h55.8v-2.15h-55.8V231.67z"/>
			</g>
		</g>
	</g>
	<g>
		<g>
			<g>
				<path class="st11" d="M311.35,396.72h-49.42c-4.86,0-8.79-3.94-8.79-8.79v-59.37c0-13.17,10.67-23.84,23.84-23.84h19.32
					c13.17,0,23.84,10.67,23.84,23.84v59.37C320.14,392.78,316.2,396.72,311.35,396.72z"/>
				<path class="st10" d="M311.35,397.72h-49.42c-5.4,0-9.79-4.39-9.79-9.79v-59.37c0-13.7,11.14-24.84,24.84-24.84h19.32
					c13.7,0,24.84,11.14,24.84,24.84v59.37C321.14,393.32,316.75,397.72,311.35,397.72z M276.98,305.72
					c-12.59,0-22.84,10.25-22.84,22.84v59.37c0,4.3,3.5,7.79,7.79,7.79h49.42c4.3,0,7.79-3.5,7.79-7.79v-59.37
					c0-12.59-10.25-22.84-22.84-22.84H276.98z"/>
			</g>
			<g>
				<path class="st12" d="M309.37,387.86h-45.45c-3.41,0-6.17-2.76-6.17-6.17v-51.97c0-11.72,9.5-21.22,21.22-21.22h15.36
					c11.72,0,21.22,9.5,21.22,21.22v51.97C315.54,385.09,312.77,387.86,309.37,387.86z"/>
				<path class="st10" d="M309.37,388.86h-45.45c-3.95,0-7.17-3.22-7.17-7.17v-51.97c0-12.25,9.97-22.22,22.22-22.22h15.36
					c12.25,0,22.22,9.97,22.22,22.22v51.97C316.54,385.64,313.32,388.86,309.37,388.86z M278.96,309.49
					c-11.15,0-20.22,9.07-20.22,20.22v51.97c0,2.85,2.32,5.17,5.17,5.17h45.45c2.85,0,5.17-2.32,5.17-5.17v-51.97
					c0-11.15-9.07-20.22-20.22-20.22H278.96z"/>
			</g>
			<g>
				<path class="st11" d="M321.35,400.42h-67.97c-2.67,0-4.83-2.16-4.83-4.83v-6.93c0-2.67,2.16-4.83,4.83-4.83h67.97
					c2.67,0,4.83,2.16,4.83,4.83v6.93C326.18,398.26,324.01,400.42,321.35,400.42z"/>
				<path class="st10" d="M321.35,401.42h-67.97c-3.21,0-5.83-2.61-5.83-5.83v-6.94c0-3.21,2.61-5.83,5.83-5.83h67.97
					c3.21,0,5.83,2.61,5.83,5.83v6.94C327.18,398.81,324.56,401.42,321.35,401.42z M253.38,384.83c-2.11,0-3.83,1.72-3.83,3.83v6.94
					c0,2.11,1.72,3.83,3.83,3.83h67.97c2.11,0,3.83-1.72,3.83-3.83v-6.94c0-2.11-1.72-3.83-3.83-3.83H253.38z"/>
			</g>
			<g>
				<rect x="257.74" y="346.1" class="st11" width="57.8" height="4.15"/>
				<path class="st10" d="M316.54,351.25h-59.8v-6.15h59.8V351.25z M258.74,349.25h55.8v-2.15h-55.8V349.25z"/>
			</g>
		</g>
		<g>
			<g>
				<path class="st11" d="M400.4,396.72h-49.42c-4.86,0-8.79-3.94-8.79-8.79v-59.37c0-13.17,10.67-23.84,23.84-23.84h19.32
					c13.17,0,23.84,10.67,23.84,23.84v59.37C409.19,392.78,405.26,396.72,400.4,396.72z"/>
				<path class="st10" d="M400.4,397.72h-49.42c-5.4,0-9.79-4.39-9.79-9.79v-59.37c0-13.7,11.14-24.84,24.84-24.84h19.32
					c13.7,0,24.84,11.14,24.84,24.84v59.37C410.19,393.32,405.8,397.72,400.4,397.72z M366.03,305.72
					c-12.59,0-22.84,10.25-22.84,22.84v59.37c0,4.3,3.5,7.79,7.79,7.79h49.42c4.3,0,7.79-3.5,7.79-7.79v-59.37
					c0-12.59-10.25-22.84-22.84-22.84H366.03z"/>
			</g>
			<g>
				<path class="st12" d="M398.42,387.86h-45.45c-3.41,0-6.17-2.76-6.17-6.17v-51.97c0-11.72,9.5-21.22,21.22-21.22h15.36
					c11.72,0,21.22,9.5,21.22,21.22v51.97C404.59,385.09,401.83,387.86,398.42,387.86z"/>
				<path class="st10" d="M398.42,388.86h-45.45c-3.95,0-7.17-3.22-7.17-7.17v-51.97c0-12.25,9.97-22.22,22.22-22.22h15.36
					c12.25,0,22.22,9.97,22.22,22.22v51.97C405.59,385.64,402.38,388.86,398.42,388.86z M368.01,309.49
					c-11.15,0-20.22,9.07-20.22,20.22v51.97c0,2.85,2.32,5.17,5.17,5.17h45.45c2.85,0,5.17-2.32,5.17-5.17v-51.97
					c0-11.15-9.07-20.22-20.22-20.22H368.01z"/>
			</g>
			<g>
				<path class="st11" d="M410.4,400.42h-67.97c-2.67,0-4.83-2.16-4.83-4.83v-6.93c0-2.67,2.16-4.83,4.83-4.83h67.97
					c2.67,0,4.83,2.16,4.83,4.83v6.93C415.23,398.26,413.07,400.42,410.4,400.42z"/>
				<path class="st10" d="M410.4,401.42h-67.97c-3.21,0-5.83-2.61-5.83-5.83v-6.94c0-3.21,2.61-5.83,5.83-5.83h67.97
					c3.21,0,5.83,2.61,5.83,5.83v6.94C416.23,398.81,413.62,401.42,410.4,401.42z M342.43,384.83c-2.11,0-3.83,1.72-3.83,3.83v6.94
					c0,2.11,1.72,3.83,3.83,3.83h67.97c2.11,0,3.83-1.72,3.83-3.83v-6.94c0-2.11-1.72-3.83-3.83-3.83H342.43z"/>
			</g>
			<g>
				<rect x="346.8" y="346.1" class="st11" width="57.8" height="4.15"/>
				<path class="st10" d="M405.59,351.25h-59.8v-6.15h59.8V351.25z M347.8,349.25h55.8v-2.15h-55.8V349.25z"/>
			</g>
		</g>
		<g>
			<g>
				<path class="st11" d="M489.46,396.72h-49.42c-4.86,0-8.79-3.94-8.79-8.79v-59.37c0-13.17,10.67-23.84,23.84-23.84h19.32
					c13.17,0,23.84,10.67,23.84,23.84v59.37C498.25,392.78,494.31,396.72,489.46,396.72z"/>
				<path class="st10" d="M489.46,397.72h-49.42c-5.4,0-9.79-4.39-9.79-9.79v-59.37c0-13.7,11.14-24.84,24.84-24.84h19.32
					c13.7,0,24.84,11.14,24.84,24.84v59.37C499.25,393.32,494.86,397.72,489.46,397.72z M455.09,305.72
					c-12.59,0-22.84,10.25-22.84,22.84v59.37c0,4.3,3.5,7.79,7.79,7.79h49.42c4.3,0,7.79-3.5,7.79-7.79v-59.37
					c0-12.59-10.25-22.84-22.84-22.84H455.09z"/>
			</g>
			<g>
				<path class="st12" d="M487.48,387.86h-45.45c-3.41,0-6.17-2.76-6.17-6.17v-51.97c0-11.72,9.5-21.22,21.22-21.22h15.36
					c11.72,0,21.22,9.5,21.22,21.22v51.97C493.65,385.09,490.89,387.86,487.48,387.86z"/>
				<path class="st10" d="M487.48,388.86h-45.46c-3.95,0-7.17-3.22-7.17-7.17v-51.97c0-12.25,9.97-22.22,22.22-22.22h15.36
					c12.25,0,22.22,9.97,22.22,22.22v51.97C494.65,385.64,491.43,388.86,487.48,388.86z M457.07,309.49
					c-11.15,0-20.22,9.07-20.22,20.22v51.97c0,2.85,2.32,5.17,5.17,5.17h45.46c2.85,0,5.17-2.32,5.17-5.17v-51.97
					c0-11.15-9.07-20.22-20.22-20.22H457.07z"/>
			</g>
			<g>
				<path class="st11" d="M499.46,400.42h-67.97c-2.67,0-4.83-2.16-4.83-4.83v-6.93c0-2.67,2.16-4.83,4.83-4.83h67.97
					c2.67,0,4.83,2.16,4.83,4.83v6.93C504.29,398.26,502.13,400.42,499.46,400.42z"/>
				<path class="st10" d="M499.46,401.42h-67.97c-3.21,0-5.83-2.61-5.83-5.83v-6.94c0-3.21,2.61-5.83,5.83-5.83h67.97
					c3.21,0,5.83,2.61,5.83,5.83v6.94C505.29,398.81,502.67,401.42,499.46,401.42z M431.49,384.83c-2.11,0-3.83,1.72-3.83,3.83v6.94
					c0,2.11,1.72,3.83,3.83,3.83h67.97c2.11,0,3.83-1.72,3.83-3.83v-6.94c0-2.11-1.72-3.83-3.83-3.83H431.49z"/>
			</g>
			<g>
				<rect x="435.85" y="346.1" class="st11" width="57.8" height="4.15"/>
				<path class="st10" d="M494.65,351.25h-59.8v-6.15h59.8V351.25z M436.85,349.25h55.8v-2.15h-55.8V349.25z"/>
			</g>
		</g>
		<g>
			<g>
				<path class="st11" d="M578.51,396.72H529.1c-4.86,0-8.79-3.94-8.79-8.79v-59.37c0-13.17,10.67-23.84,23.84-23.84h19.32
					c13.17,0,23.84,10.67,23.84,23.84v59.37C587.31,392.78,583.37,396.72,578.51,396.72z"/>
				<path class="st10" d="M578.51,397.72H529.1c-5.4,0-9.79-4.39-9.79-9.79v-59.37c0-13.7,11.14-24.84,24.84-24.84h19.32
					c13.7,0,24.84,11.14,24.84,24.84v59.37C588.31,393.32,583.91,397.72,578.51,397.72z M544.14,305.72
					c-12.59,0-22.84,10.25-22.84,22.84v59.37c0,4.3,3.5,7.79,7.79,7.79h49.42c4.3,0,7.79-3.5,7.79-7.79v-59.37
					c0-12.59-10.25-22.84-22.84-22.84H544.14z"/>
			</g>
			<g>
				<path class="st12" d="M576.53,387.86h-45.45c-3.41,0-6.17-2.76-6.17-6.17v-51.97c0-11.72,9.5-21.22,21.22-21.22h15.36
					c11.72,0,21.22,9.5,21.22,21.22v51.97C582.7,385.09,579.94,387.86,576.53,387.86z"/>
				<path class="st10" d="M576.53,388.86h-45.45c-3.95,0-7.17-3.22-7.17-7.17v-51.97c0-12.25,9.97-22.22,22.22-22.22h15.36
					c12.25,0,22.22,9.97,22.22,22.22v51.97C583.7,385.64,580.49,388.86,576.53,388.86z M546.13,309.49
					c-11.15,0-20.22,9.07-20.22,20.22v51.97c0,2.85,2.32,5.17,5.17,5.17h45.45c2.85,0,5.17-2.32,5.17-5.17v-51.97
					c0-11.15-9.07-20.22-20.22-20.22H546.13z"/>
			</g>
			<g>
				<path class="st11" d="M588.51,400.42h-67.97c-2.67,0-4.83-2.16-4.83-4.83v-6.93c0-2.67,2.16-4.83,4.83-4.83h67.97
					c2.67,0,4.83,2.16,4.83,4.83v6.93C593.34,398.26,591.18,400.42,588.51,400.42z"/>
				<path class="st10" d="M588.51,401.42h-67.97c-3.21,0-5.83-2.61-5.83-5.83v-6.94c0-3.21,2.61-5.83,5.83-5.83h67.97
					c3.21,0,5.83,2.61,5.83,5.83v6.94C594.34,398.81,591.73,401.42,588.51,401.42z M520.54,384.83c-2.11,0-3.83,1.72-3.83,3.83v6.94
					c0,2.11,1.72,3.83,3.83,3.83h67.97c2.11,0,3.83-1.72,3.83-3.83v-6.94c0-2.11-1.72-3.83-3.83-3.83H520.54z"/>
			</g>
			<g>
				<rect x="524.91" y="346.1" class="st11" width="57.8" height="4.15"/>
				<path class="st10" d="M583.7,351.25h-59.8v-6.15h59.8V351.25z M525.91,349.25h55.8v-2.15h-55.8V349.25z"/>
			</g>
		</g>
	</g>
	<g>
		<g>
			<g>
				<path class="st11" d="M311.35,517.51h-49.42c-4.86,0-8.79-3.94-8.79-8.79v-59.37c0-13.17,10.67-23.84,23.84-23.84h19.32
					c13.17,0,23.84,10.67,23.84,23.84v59.37C320.14,513.57,316.2,517.51,311.35,517.51z"/>
				<path class="st10" d="M311.35,518.51h-49.42c-5.4,0-9.79-4.39-9.79-9.79v-59.37c0-13.7,11.14-24.84,24.84-24.84h19.32
					c13.7,0,24.84,11.14,24.84,24.84v59.37C321.14,514.11,316.75,518.51,311.35,518.51z M276.98,426.51
					c-12.59,0-22.84,10.25-22.84,22.84v59.37c0,4.3,3.5,7.79,7.79,7.79h49.42c4.3,0,7.79-3.5,7.79-7.79v-59.37
					c0-12.59-10.25-22.84-22.84-22.84H276.98z"/>
			</g>
			<g>
				<path class="st12" d="M309.37,508.65h-45.45c-3.41,0-6.17-2.76-6.17-6.17V450.5c0-11.72,9.5-21.22,21.22-21.22h15.36
					c11.72,0,21.22,9.5,21.22,21.22v51.97C315.54,505.88,312.77,508.65,309.37,508.65z"/>
				<path class="st10" d="M309.37,509.65h-45.45c-3.95,0-7.17-3.22-7.17-7.17V450.5c0-12.25,9.97-22.22,22.22-22.22h15.36
					c12.25,0,22.22,9.97,22.22,22.22v51.97C316.54,506.43,313.32,509.65,309.37,509.65z M278.96,430.28
					c-11.15,0-20.22,9.07-20.22,20.22v51.97c0,2.85,2.32,5.17,5.17,5.17h45.45c2.85,0,5.17-2.32,5.17-5.17V450.5
					c0-11.15-9.07-20.22-20.22-20.22H278.96z"/>
			</g>
			<g>
				<path class="st11" d="M321.35,521.21h-67.97c-2.67,0-4.83-2.16-4.83-4.83v-6.93c0-2.67,2.16-4.83,4.83-4.83h67.97
					c2.67,0,4.83,2.16,4.83,4.83v6.93C326.18,519.05,324.01,521.21,321.35,521.21z"/>
				<path class="st10" d="M321.35,522.21h-67.97c-3.21,0-5.83-2.61-5.83-5.83v-6.94c0-3.21,2.61-5.83,5.83-5.83h67.97
					c3.21,0,5.83,2.61,5.83,5.83v6.94C327.18,519.59,324.56,522.21,321.35,522.21z M253.38,505.62c-2.11,0-3.83,1.72-3.83,3.83v6.94
					c0,2.11,1.72,3.83,3.83,3.83h67.97c2.11,0,3.83-1.72,3.83-3.83v-6.94c0-2.11-1.72-3.83-3.83-3.83H253.38z"/>
			</g>
			<g>
				<rect x="257.74" y="466.89" class="st11" width="57.8" height="4.15"/>
				<path class="st10" d="M316.54,472.04h-59.8v-6.15h59.8V472.04z M258.74,470.04h55.8v-2.15h-55.8V470.04z"/>
			</g>
		</g>
		<g>
			<g>
				<path class="st11" d="M400.4,517.51h-49.42c-4.86,0-8.79-3.94-8.79-8.79v-59.37c0-13.17,10.67-23.84,23.84-23.84h19.32
					c13.17,0,23.84,10.67,23.84,23.84v59.37C409.19,513.57,405.26,517.51,400.4,517.51z"/>
				<path class="st10" d="M400.4,518.51h-49.42c-5.4,0-9.79-4.39-9.79-9.79v-59.37c0-13.7,11.14-24.84,24.84-24.84h19.32
					c13.7,0,24.84,11.14,24.84,24.84v59.37C410.19,514.11,405.8,518.51,400.4,518.51z M366.03,426.51
					c-12.59,0-22.84,10.25-22.84,22.84v59.37c0,4.3,3.5,7.79,7.79,7.79h49.42c4.3,0,7.79-3.5,7.79-7.79v-59.37
					c0-12.59-10.25-22.84-22.84-22.84H366.03z"/>
			</g>
			<g>
				<path class="st12" d="M398.42,508.65h-45.45c-3.41,0-6.17-2.76-6.17-6.17V450.5c0-11.72,9.5-21.22,21.22-21.22h15.36
					c11.72,0,21.22,9.5,21.22,21.22v51.97C404.59,505.88,401.83,508.65,398.42,508.65z"/>
				<path class="st10" d="M398.42,509.65h-45.45c-3.95,0-7.17-3.22-7.17-7.17V450.5c0-12.25,9.97-22.22,22.22-22.22h15.36
					c12.25,0,22.22,9.97,22.22,22.22v51.97C405.59,506.43,402.38,509.65,398.42,509.65z M368.01,430.28
					c-11.15,0-20.22,9.07-20.22,20.22v51.97c0,2.85,2.32,5.17,5.17,5.17h45.45c2.85,0,5.17-2.32,5.17-5.17V450.5
					c0-11.15-9.07-20.22-20.22-20.22H368.01z"/>
			</g>
			<g>
				<path class="st11" d="M410.4,521.21h-67.97c-2.67,0-4.83-2.16-4.83-4.83v-6.93c0-2.67,2.16-4.83,4.83-4.83h67.97
					c2.67,0,4.83,2.16,4.83,4.83v6.93C415.23,519.05,413.07,521.21,410.4,521.21z"/>
				<path class="st10" d="M410.4,522.21h-67.97c-3.21,0-5.83-2.61-5.83-5.83v-6.94c0-3.21,2.61-5.83,5.83-5.83h67.97
					c3.21,0,5.83,2.61,5.83,5.83v6.94C416.23,519.59,413.62,522.21,410.4,522.21z M342.43,505.62c-2.11,0-3.83,1.72-3.83,3.83v6.94
					c0,2.11,1.72,3.83,3.83,3.83h67.97c2.11,0,3.83-1.72,3.83-3.83v-6.94c0-2.11-1.72-3.83-3.83-3.83H342.43z"/>
			</g>
			<g>
				<rect x="346.8" y="466.89" class="st11" width="57.8" height="4.15"/>
				<path class="st10" d="M405.59,472.04h-59.8v-6.15h59.8V472.04z M347.8,470.04h55.8v-2.15h-55.8V470.04z"/>
			</g>
		</g>
		<g>
			<g>
				<path class="st11" d="M489.46,517.51h-49.42c-4.86,0-8.79-3.94-8.79-8.79v-59.37c0-13.17,10.67-23.84,23.84-23.84h19.32
					c13.17,0,23.84,10.67,23.84,23.84v59.37C498.25,513.57,494.31,517.51,489.46,517.51z"/>
				<path class="st10" d="M489.46,518.51h-49.42c-5.4,0-9.79-4.39-9.79-9.79v-59.37c0-13.7,11.14-24.84,24.84-24.84h19.32
					c13.7,0,24.84,11.14,24.84,24.84v59.37C499.25,514.11,494.86,518.51,489.46,518.51z M455.09,426.51
					c-12.59,0-22.84,10.25-22.84,22.84v59.37c0,4.3,3.5,7.79,7.79,7.79h49.42c4.3,0,7.79-3.5,7.79-7.79v-59.37
					c0-12.59-10.25-22.84-22.84-22.84H455.09z"/>
			</g>
			<g>
				<path class="st12" d="M487.48,508.65h-45.45c-3.41,0-6.17-2.76-6.17-6.17V450.5c0-11.72,9.5-21.22,21.22-21.22h15.36
					c11.72,0,21.22,9.5,21.22,21.22v51.97C493.65,505.88,490.89,508.65,487.48,508.65z"/>
				<path class="st10" d="M487.48,509.65h-45.46c-3.95,0-7.17-3.22-7.17-7.17V450.5c0-12.25,9.97-22.22,22.22-22.22h15.36
					c12.25,0,22.22,9.97,22.22,22.22v51.97C494.65,506.43,491.43,509.65,487.48,509.65z M457.07,430.28
					c-11.15,0-20.22,9.07-20.22,20.22v51.97c0,2.85,2.32,5.17,5.17,5.17h45.46c2.85,0,5.17-2.32,5.17-5.17V450.5
					c0-11.15-9.07-20.22-20.22-20.22H457.07z"/>
			</g>
			<g>
				<path class="st11" d="M499.46,521.21h-67.97c-2.67,0-4.83-2.16-4.83-4.83v-6.93c0-2.67,2.16-4.83,4.83-4.83h67.97
					c2.67,0,4.83,2.16,4.83,4.83v6.93C504.29,519.05,502.13,521.21,499.46,521.21z"/>
				<path class="st10" d="M499.46,522.21h-67.97c-3.21,0-5.83-2.61-5.83-5.83v-6.94c0-3.21,2.61-5.83,5.83-5.83h67.97
					c3.21,0,5.83,2.61,5.83,5.83v6.94C505.29,519.59,502.67,522.21,499.46,522.21z M431.49,505.62c-2.11,0-3.83,1.72-3.83,3.83v6.94
					c0,2.11,1.72,3.83,3.83,3.83h67.97c2.11,0,3.83-1.72,3.83-3.83v-6.94c0-2.11-1.72-3.83-3.83-3.83H431.49z"/>
			</g>
			<g>
				<rect x="435.85" y="466.89" class="st11" width="57.8" height="4.15"/>
				<path class="st10" d="M494.65,472.04h-59.8v-6.15h59.8V472.04z M436.85,470.04h55.8v-2.15h-55.8V470.04z"/>
			</g>
		</g>
		<g>
			<g>
				<path class="st11" d="M578.51,517.51H529.1c-4.86,0-8.79-3.94-8.79-8.79v-59.37c0-13.17,10.67-23.84,23.84-23.84h19.32
					c13.17,0,23.84,10.67,23.84,23.84v59.37C587.31,513.57,583.37,517.51,578.51,517.51z"/>
				<path class="st10" d="M578.51,518.51H529.1c-5.4,0-9.79-4.39-9.79-9.79v-59.37c0-13.7,11.14-24.84,24.84-24.84h19.32
					c13.7,0,24.84,11.14,24.84,24.84v59.37C588.31,514.11,583.91,518.51,578.51,518.51z M544.14,426.51
					c-12.59,0-22.84,10.25-22.84,22.84v59.37c0,4.3,3.5,7.79,7.79,7.79h49.42c4.3,0,7.79-3.5,7.79-7.79v-59.37
					c0-12.59-10.25-22.84-22.84-22.84H544.14z"/>
			</g>
			<g>
				<path class="st12" d="M576.53,508.65h-45.45c-3.41,0-6.17-2.76-6.17-6.17V450.5c0-11.72,9.5-21.22,21.22-21.22h15.36
					c11.72,0,21.22,9.5,21.22,21.22v51.97C582.7,505.88,579.94,508.65,576.53,508.65z"/>
				<path class="st10" d="M576.53,509.65h-45.45c-3.95,0-7.17-3.22-7.17-7.17V450.5c0-12.25,9.97-22.22,22.22-22.22h15.36
					c12.25,0,22.22,9.97,22.22,22.22v51.97C583.7,506.43,580.49,509.65,576.53,509.65z M546.13,430.28
					c-11.15,0-20.22,9.07-20.22,20.22v51.97c0,2.85,2.32,5.17,5.17,5.17h45.45c2.85,0,5.17-2.32,5.17-5.17V450.5
					c0-11.15-9.07-20.22-20.22-20.22H546.13z"/>
			</g>
			<g>
				<path class="st11" d="M588.51,521.21h-67.97c-2.67,0-4.83-2.16-4.83-4.83v-6.93c0-2.67,2.16-4.83,4.83-4.83h67.97
					c2.67,0,4.83,2.16,4.83,4.83v6.93C593.34,519.05,591.18,521.21,588.51,521.21z"/>
				<path class="st10" d="M588.51,522.21h-67.97c-3.21,0-5.83-2.61-5.83-5.83v-6.94c0-3.21,2.61-5.83,5.83-5.83h67.97
					c3.21,0,5.83,2.61,5.83,5.83v6.94C594.34,519.59,591.73,522.21,588.51,522.21z M520.54,505.62c-2.11,0-3.83,1.72-3.83,3.83v6.94
					c0,2.11,1.72,3.83,3.83,3.83h67.97c2.11,0,3.83-1.72,3.83-3.83v-6.94c0-2.11-1.72-3.83-3.83-3.83H520.54z"/>
			</g>
			<g>
				<rect x="524.91" y="466.89" class="st11" width="57.8" height="4.15"/>
				<path class="st10" d="M583.7,472.04h-59.8v-6.15h59.8V472.04z M525.91,470.04h55.8v-2.15h-55.8V470.04z"/>
			</g>
		</g>
	</g>
	<g>
		<circle class="st11" cx="398.75" cy="658.12" r="4.9"/>
		<path class="st10" d="M398.75,664.02c-3.25,0-5.9-2.65-5.9-5.9s2.65-5.9,5.9-5.9c3.25,0,5.9,2.65,5.9,5.9
			S402,664.02,398.75,664.02z M398.75,654.22c-2.15,0-3.9,1.75-3.9,3.9s1.75,3.9,3.9,3.9s3.9-1.75,3.9-3.9
			S400.9,654.22,398.75,654.22z"/>
	</g>
	<g>
		<g>
			<path class="st12" d="M453.15,620.98c-2.03-15.23-15.05-26.98-30.83-26.98h-4.18c-15.78,0-28.81,11.75-30.83,26.98H453.15z"/>
			<path class="st10" d="M454.29,621.98h-68.13l0.15-1.13c2.11-15.88,15.79-27.85,31.83-27.85h4.18c16.03,0,29.72,11.97,31.83,27.85
				L454.29,621.98z M388.46,619.98h63.52c-2.46-14.32-15.02-24.98-29.67-24.98h-4.18C403.48,595,390.93,605.66,388.46,619.98z"/>
		</g>
	</g>
	<g>
		<path class="st11" d="M387.16,620.98c0,0.01,0,0.02,0,0.03v4.11h66.13c0-1.4-0.1-2.78-0.28-4.14H387.16z"/>
		<path class="st10" d="M454.29,626.12h-68.13l0.01-5.29l0.13-0.85h67.58l0.12,0.87c0.19,1.46,0.29,2.89,0.29,4.27V626.12z
			 M388.15,624.12h64.12c-0.03-0.7-0.08-1.42-0.15-2.14h-63.97L388.15,624.12z"/>
	</g>
	<g>
		<g>
			<path class="st11" d="M334.95,657.74h-49.42c-4.86,0-8.79-3.94-8.79-8.79v-59.37c0-13.17,10.67-23.84,23.84-23.84h19.32
				c13.17,0,23.84,10.67,23.84,23.84v59.37C343.75,653.8,339.81,657.74,334.95,657.74z"/>
			<path class="st10" d="M334.95,658.74h-49.42c-5.4,0-9.79-4.39-9.79-9.79v-59.37c0-13.7,11.14-24.84,24.84-24.84h19.32
				c13.7,0,24.84,11.14,24.84,24.84v59.37C344.75,654.34,340.35,658.74,334.95,658.74z M300.58,566.74
				c-12.59,0-22.84,10.25-22.84,22.84v59.37c0,4.3,3.5,7.79,7.79,7.79h49.42c4.3,0,7.79-3.5,7.79-7.79v-59.37
				c0-12.59-10.25-22.84-22.84-22.84H300.58z"/>
		</g>
		<g>
			<path class="st12" d="M332.97,648.88h-45.45c-3.41,0-6.17-2.76-6.17-6.17v-51.97c0-11.72,9.5-21.22,21.22-21.22h15.36
				c11.72,0,21.22,9.5,21.22,21.22v51.97C339.14,646.11,336.38,648.88,332.97,648.88z"/>
			<path class="st10" d="M332.97,649.88h-45.45c-3.95,0-7.17-3.22-7.17-7.17v-51.97c0-12.25,9.97-22.22,22.22-22.22h15.36
				c12.25,0,22.22,9.97,22.22,22.22v51.97C340.14,646.66,336.93,649.88,332.97,649.88z M302.56,570.51
				c-11.15,0-20.22,9.07-20.22,20.22v51.97c0,2.85,2.32,5.17,5.17,5.17h45.45c2.85,0,5.17-2.32,5.17-5.17v-51.97
				c0-11.15-9.07-20.22-20.22-20.22H302.56z"/>
		</g>
		<g>
			<path class="st11" d="M344.95,661.44h-67.97c-2.67,0-4.83-2.16-4.83-4.83v-6.93c0-2.67,2.16-4.83,4.83-4.83h67.97
				c2.67,0,4.83,2.16,4.83,4.83v6.93C349.78,659.28,347.62,661.44,344.95,661.44z"/>
			<path class="st10" d="M344.95,662.44h-67.97c-3.21,0-5.83-2.62-5.83-5.83v-6.93c0-3.21,2.61-5.83,5.83-5.83h67.97
				c3.21,0,5.83,2.62,5.83,5.83v6.93C350.78,659.82,348.17,662.44,344.95,662.44z M276.98,645.85c-2.11,0-3.83,1.72-3.83,3.83v6.93
				c0,2.11,1.72,3.83,3.83,3.83h67.97c2.11,0,3.83-1.72,3.83-3.83v-6.93c0-2.11-1.72-3.83-3.83-3.83H276.98z"/>
		</g>
		<g>
			<rect x="281.35" y="607.12" class="st11" width="57.8" height="4.15"/>
			<path class="st10" d="M340.14,612.27h-59.8v-6.15h59.8V612.27z M282.35,610.27h55.8v-2.15h-55.8V610.27z"/>
		</g>
	</g>
	<g>
		<g>
			<path class="st11" d="M543.48,657.74h-49.42c-4.86,0-8.79-3.94-8.79-8.79v-59.37c0-13.17,10.67-23.84,23.84-23.84h19.32
				c13.17,0,23.84,10.67,23.84,23.84v59.37C552.27,653.8,548.34,657.74,543.48,657.74z"/>
			<path class="st10" d="M543.48,658.74h-49.42c-5.4,0-9.79-4.39-9.79-9.79v-59.37c0-13.7,11.14-24.84,24.84-24.84h19.32
				c13.7,0,24.84,11.14,24.84,24.84v59.37C553.27,654.34,548.88,658.74,543.48,658.74z M509.11,566.74
				c-12.59,0-22.84,10.25-22.84,22.84v59.37c0,4.3,3.5,7.79,7.79,7.79h49.42c4.3,0,7.79-3.5,7.79-7.79v-59.37
				c0-12.59-10.25-22.84-22.84-22.84H509.11z"/>
		</g>
		<g>
			<path class="st12" d="M541.5,648.88h-45.45c-3.41,0-6.17-2.76-6.17-6.17v-51.97c0-11.72,9.5-21.22,21.22-21.22h15.36
				c11.72,0,21.22,9.5,21.22,21.22v51.97C547.67,646.11,544.91,648.88,541.5,648.88z"/>
			<path class="st10" d="M541.5,649.88h-45.45c-3.95,0-7.17-3.22-7.17-7.17v-51.97c0-12.25,9.97-22.22,22.22-22.22h15.36
				c12.25,0,22.22,9.97,22.22,22.22v51.97C548.67,646.66,545.45,649.88,541.5,649.88z M511.09,570.51
				c-11.15,0-20.22,9.07-20.22,20.22v51.97c0,2.85,2.32,5.17,5.17,5.17h45.45c2.85,0,5.17-2.32,5.17-5.17v-51.97
				c0-11.15-9.07-20.22-20.22-20.22H511.09z"/>
		</g>
		<g>
			<path class="st11" d="M553.48,661.44h-67.97c-2.67,0-4.83-2.16-4.83-4.83v-6.93c0-2.67,2.16-4.83,4.83-4.83h67.97
				c2.67,0,4.83,2.16,4.83,4.83v6.93C558.31,659.28,556.15,661.44,553.48,661.44z"/>
			<path class="st10" d="M553.48,662.44h-67.97c-3.21,0-5.83-2.62-5.83-5.83v-6.93c0-3.21,2.62-5.83,5.83-5.83h67.97
				c3.21,0,5.83,2.62,5.83,5.83v6.93C559.31,659.82,556.7,662.44,553.48,662.44z M485.51,645.85c-2.11,0-3.83,1.72-3.83,3.83v6.93
				c0,2.11,1.72,3.83,3.83,3.83h67.97c2.11,0,3.83-1.72,3.83-3.83v-6.93c0-2.11-1.72-3.83-3.83-3.83H485.51z"/>
		</g>
		<g>
			<rect x="489.88" y="607.12" class="st11" width="57.8" height="4.15"/>
			<path class="st10" d="M548.67,612.27h-59.8v-6.15h59.8V612.27z M490.88,610.27h55.8v-2.15h-55.8V610.27z"/>
		</g>
	</g>
</g>
</svg>
